<?xml version="1.0" encoding="UTF-8"?>
<svg width="1200pt" height="1200pt" version="1.1" viewBox="0 0 1200 1200" xmlns="http://www.w3.org/2000/svg">
 <path d="m244.5 204c-88.949 0-160.5 75.445-160.5 168s71.551 168 160.5 168h859.5v-24c-75.402 0-136.5-63.688-136.5-144s61.098-144 136.5-144v-24zm0 24h777.38c-46.844 29.375-78.375 82.809-78.375 144 0 61.5 31.887 114.72 79.125 144h-778.12c-75.402 0-136.5-63.688-136.5-144s61.098-144 136.5-144zm-150.75 432c-6.6289 0.62109-11.496 6.4961-10.875 13.125s6.4961 11.496 13.125 10.875c75.402 0 136.5 63.684 136.5 144s-61.098 144-136.5 144c-6.5625 0.09375-11.832 5.4375-11.832 12s5.2695 11.906 11.832 12h754.88c3.2109 0.046875 6.3086-1.1992 8.5938-3.4531 2.2891-2.2578 3.5781-5.3359 3.5781-8.5469s-1.2891-6.2891-3.5781-8.5469c-2.2852-2.2539-5.3828-3.5-8.5938-3.4531h-673.5c47.238-29.277 79.125-82.5 79.125-144 0-61.191-31.531-114.62-78.375-144h777.38c75.402 0 136.5 63.684 136.5 144s-61.098 144-136.5 144h-31.875c-3.2109-0.046875-6.3086 1.1992-8.5938 3.4531-2.2891 2.2578-3.5781 5.3359-3.5781 8.5469s1.2891 6.2891 3.5781 8.5469c2.2852 2.2539 5.3828 3.5 8.5938 3.4531h31.875c88.949 0 160.5-75.441 160.5-168s-71.551-168-160.5-168h-859.5c-0.75-0.070312-1.5-0.070312-2.25 0z"/>
</svg>
